<svg xmlns="http://www.w3.org/2000/svg" viewBox="0 0 216.12 205.03"><defs><style>.cls-1{fill:#fff;}.cls-2{fill:#088eda;}</style></defs><g id="Capa_2" data-name="Capa 2"><g id="Capa_1-2" data-name="Capa 1"><path class="cls-1" d="M216.12,131.79c-2.58,2.86-5.71,3-9.13,1.94-2.3-.73-4.46-1.83-6.7-2.72a12.59,12.59,0,0,0-13,1.84l-.29.22c-.39.3-.81.37-1.14,0a.77.77,0,0,1,.2-1.18,15.21,15.21,0,0,1,5.21-2.8,14.35,14.35,0,0,1,9.95.68c2,.84,3.91,1.8,6,2.45a8.61,8.61,0,0,0,4.66.48,5.39,5.39,0,0,0,2.65-1.48c.63-.63,1-.61,1.6,0Z"/><path class="cls-1" d="M216.12,124.16c-.35.31-.69.62-1,.91-2.2,1.81-4.69,1.85-7.28,1.19a48.18,48.18,0,0,1-7-2.75,12.67,12.67,0,0,0-13.67,1.8c-.44.35-.88.48-1.25,0s-.14-.89.29-1.22a14.09,14.09,0,0,1,14.51-2.28c2.26.86,4.4,2,6.71,2.73a8.83,8.83,0,0,0,4.38.44,5.35,5.35,0,0,0,2.69-1.43c.73-.71.91-.72,1.66-.1Z"/><path class="cls-1" d="M38.56,205a2.87,2.87,0,0,1-.6-.69q-2.72-4.59-5.45-9.18l-.18-.3c-.25-.43-.26-.86.19-1.13a.77.77,0,0,1,1.15.34l3.15,5.3c.82,1.38,1.64,2.75,2.45,4.13.46.77.41,1-.27,1.53Z"/><path class="cls-1" d="M3.6,205a3,3,0,0,1-.59-.69c-.9-1.46-1.81-2.93-2.73-4.38-.3-.47-.47-1,.09-1.3s.92,0,1.22.46c.91,1.48,1.85,3,2.76,4.44.44.71.38,1-.32,1.47Z"/><path class="cls-1" d="M149.48,67.19a1.53,1.53,0,0,1,.05.9c-.46,1.88-.88,3.77-1.33,5.72h3.48c2.58,0,5.17,0,7.76,0A6,6,0,0,1,165.61,80c0,7,0,14,0,21.08a2.84,2.84,0,0,0,.41,1.48q11.46,20.31,22.18,41c.49.95.48,1-.44,1.45a3.19,3.19,0,0,0-.32.2,27.83,27.83,0,0,0,2.66,2.66c.32.28.35.43.06.77-1.24,1.46-2.45,3-3.67,4.43-.19.23-.48.49-.13.79s.64.12.9-.2c1.2-1.46,2.43-2.9,3.6-4.39.31-.39.49-.35.83-.07a13.29,13.29,0,0,0,1.7,1.19c.44.25.37.45.17.81-.73,1.26-1.44,2.54-2.14,3.82-.13.22-.3.44-.21.73a.48.48,0,0,0,.39.37.49.49,0,0,0,.57-.33l1.83-3.25c.24-.44.41-1.06.78-1.24s.87.24,1.3.41c1.45.57,2.94.26,4.41.21a15,15,0,0,1,6.16,1l-1.7.81q-18.15,8.51-36.27,17c-.6.28-.78.15-1-.38-1.83-4-3.71-7.92-5.54-11.89-.24-.52-.45-.55-.92-.31-1.87,1-3.77,1.88-5.64,2.84-.4.21-.6.16-.84-.23-.86-1.43-1.76-2.84-2.75-4.24.15,1,.31,2,.47,3L155.84,181l.15.92c.14,1,.15,1-.83,1.33-.36.1-.28.27-.2.52a34.69,34.69,0,0,0,1.5,4.18c.18.41.09.55-.29.73q-2.52,1.16-5,2.36c-.31.15-.87.21-.64.76s.66.3,1,.12c1.64-.78,3.29-1.55,4.92-2.35.41-.2.67-.26.85.27a4.67,4.67,0,0,0,.47.88c.63,1.12.63,1.12-.45,1.89l-3.56,2.56c-.32.22-.61.48-.36.87s.62.14.91-.07c1.4-1,2.81-2,4.19-3,.37-.28.57-.28.86.09a7.63,7.63,0,0,0,3.58,2.53,14.73,14.73,0,0,1,6.22,3.85c-.13.22-.35.11-.51.11q-20.73,0-41.44,0c-.59,0-.64-.2-.64-.7,0-2.9,0-5.8,0-8.7v-.86c-1.48.31-2.91.59-4.32.94a1.19,1.19,0,0,1-1.48-.55,27.62,27.62,0,0,1-3.58-7.78,78.73,78.73,0,0,1-2.7-13.5,189,189,0,0,1-1.32-21c0-.41-.12-.58-.52-.52h-92c-1.1,0-1-.14-1,1q0,27.26,0,54.52a1.88,1.88,0,0,1-2.15,2.13A1.7,1.7,0,0,1,16.05,203a4.91,4.91,0,0,1-.05-.86q0-27.22,0-54.45c0-.76-.22-.9-.91-.88a12.92,12.92,0,0,1-3.51-.18,6,6,0,0,1-4.66-5.75c-.05-2.93-.05-5.85,0-8.78A6.08,6.08,0,0,1,13,126.18c.82,0,1.63,0,2.45,0,.38,0,.53-.08.53-.51q0-4,0-8c0-.39-.13-.47-.5-.47a23.71,23.71,0,0,1-3.37-.07,6.06,6.06,0,0,1-5.2-6.11q0-10.68,0-21.36V80.2a6.09,6.09,0,0,1,6.36-6.39q13.67,0,27.33,0a.92.92,0,0,0,1-.69,56.47,56.47,0,0,1,9-15.43A26,26,0,0,1,66,48.78a25.65,25.65,0,0,1,3.28-.47c.07-.26-.17-.31-.3-.42A14.57,14.57,0,0,1,64.33,41a.85.85,0,0,0-.72-.65,8.69,8.69,0,0,1-6.5-7.62A5.66,5.66,0,0,1,64,27.3c.51.16.65-.06.74-.52a12.21,12.21,0,0,1,2.68-5.64c1-1.12,2.18-2.14,3.71-2.08a3.1,3.1,0,0,0,2.46-1.18,19,19,0,0,1,5.9-4.14,6.38,6.38,0,0,1,1.87-.49,3.87,3.87,0,0,1,4,2.09c.23.41.42.5.88.33a14.79,14.79,0,0,1,5.62-1,7,7,0,0,1,6.88,4.91,12.39,12.39,0,0,1,.69,5.79c-.33,2.79-2.35,4.81-5.45,5.41-.71.13-1.42.2-2.14.26-.27,0-.37.08-.33.38,1.06,7.69-2.42,13.33-8.13,18,0,0,0,.08-.08.17a20.71,20.71,0,0,1,5.19,2.81A22.29,22.29,0,0,1,93,57.15a107.91,107.91,0,0,1,9.74,16.22.64.64,0,0,0,.7.44q14.77,0,29.56,0a1.76,1.76,0,0,0,.76-.16l13.9-6.33a.65.65,0,0,0,.16-.13C148.38,67,148.93,66.63,149.48,67.19ZM102.26,104l-2.14.6c-.12,0-.33,0-.29.21.08.42-.28.45-.51.57a106.68,106.68,0,0,1-9.87,4.77c-12,5-24.34,7.49-37.33,6.4a20.3,20.3,0,0,1-9.32-2.84s-.12,0-.21,0c.1,2.78.25,5.53.61,8.26a33.23,33.23,0,0,0,2.14,8.61c2.08,4.91,5.72,7.71,11.09,8.16,3,.26,6.08.31,9.11.37,8,.13,16,.13,23.95.07,8.2,0,16.39-.2,24.58-.36.6,0,.77.15.74.75-.1,2.32-.1,4.65-.07,7,.08,6,.33,12.06.93,18.08a93.87,93.87,0,0,0,2.62,15.34,29,29,0,0,0,3.39,8.18.72.72,0,0,0,.9.4c6.53-1.4,13.06-2.76,19.59-4.14l11.73-2.48c.31-.07.55-.08.48-.51-.36-2.11-.7-4.22-1-6.38a2.1,2.1,0,0,1-1,.4c-3.21.57-6.41,1.16-9.61,1.75l-22.24,4.1c-.54.1-1.06.08-1.19-.57s.36-.86.89-1l5.58-1q12.08-2.22,24.15-4.42a10.25,10.25,0,0,1,3.21-.4q-2-12.45-4-24.84a1.12,1.12,0,0,1,.42.42c1.88,3.06,3.77,6.11,5.62,9.19.27.44.46.52.94.28l22.54-11.18c2.46-1.22,4.93-2.43,7.39-3.66.2-.1.59-.11.35-.57-1.06-2-2.1-4-3.18-6.12a1.38,1.38,0,0,1-.7.82q-13.77,7.94-28,15a2.62,2.62,0,0,1-.53.2.67.67,0,0,1-.83-.39.7.7,0,0,1,.24-.95,3.86,3.86,0,0,1,.57-.3q14-6.94,27.5-14.72a1.88,1.88,0,0,1,1.24-.38.76.76,0,0,0-.15-.51q-9-17.13-18.59-34a25,25,0,0,0-17.43-12.77c-1.94-.4-2-.42-2.37,1.51a2.57,2.57,0,0,1-1,1.63q-7.75,6.06-15.46,12.18L126.16,106c2.73.56,5.33,1.09,7.94,1.6.55.11,1,.3.89,1s-.59.7-1.16.58a5.63,5.63,0,0,0-1.6-.25A105.82,105.82,0,0,0,139.06,130a125.66,125.66,0,0,0,9.19,16.46c.29.44.45.88,0,1.27s-.88.19-1.29-.43a106.91,106.91,0,0,1-16.14-37.75,1.4,1.4,0,0,0-1.27-1.29,41.7,41.7,0,0,0-9.32-1c-5.42.11-10.84,0-16.26,0a1.86,1.86,0,0,1-1.95-1,1.8,1.8,0,0,1,.4-2.11c0-.08.26-.09.14-.22S102.34,103.89,102.26,104ZM60.88,140.35H9.39c-1,0-1,.06-.86,1.06a4.63,4.63,0,0,0,4.73,3.88h99.47c.38.05.5-.1.49-.48,0-1.25,0-2.5,0-3.74,0-.53-.11-.68-.66-.67-5.8.11-11.6.24-17.39.28C83.75,140.75,72.31,140.86,60.88,140.35ZM90.22,34.14A20,20,0,0,0,90,31.57c-.06-.48-.29-.59-.69-.61A12.75,12.75,0,0,1,86,30.24c-1.45-.49-2.9-1-4.37-1.4a15.57,15.57,0,0,0-5.51-.79,4.16,4.16,0,0,0-4.08,3.3c-.15.53-.25,1.07-.43,1.59a1.19,1.19,0,0,1-1.17.89,1.46,1.46,0,0,1-1.7-1.56c0-.32.16-.66-.18-.94a9.9,9.9,0,0,0-5.69-2.62,3.85,3.85,0,0,0-4.24,3.85A7.08,7.08,0,0,0,64.7,39a.81.81,0,0,1,.86.71,13.42,13.42,0,0,0,7.5,9,9,9,0,0,0,10.09-1.06,18,18,0,0,0,3.48-3.71A16.34,16.34,0,0,0,90.22,34.14ZM26.61,115.7c4.61,0,9.21,0,13.81,0,.53,0,.72-.12.67-.67a20.5,20.5,0,0,1-.07-2.22,1.12,1.12,0,0,0-.34-.89A8.94,8.94,0,0,1,39,109.71a18.86,18.86,0,0,1-2.08-6.23c-.09-.49-.23-.65-.76-.65q-13.51,0-27,0c-.51,0-.63.12-.63.62,0,2.43.1,4.85,0,7.27a4.76,4.76,0,0,0,5,5C17.84,115.64,22.22,115.7,26.61,115.7ZM23,87.19c4.63,0,9.26,0,13.89,0,.46,0,.64-.1.74-.6a70,70,0,0,1,3-10.55c.22-.59.17-.75-.51-.75-4.48,0-9,0-13.45,0-4.29,0-8.58.07-12.87,0a4.8,4.8,0,0,0-5.23,5.19c.13,2,0,4,0,6,0,.54.12.67.66.67C13.74,87.18,18.35,87.19,23,87.19Zm-.09,1.56c-4.53,0-9.06,0-13.59,0-.6,0-.8.1-.8.76q.06,5.54,0,11.08c0,.6.14.73.74.73q13.3,0,26.6,0c.67,0,.78-.17.72-.78a43.84,43.84,0,0,1,.55-11.09c.09-.62-.09-.7-.64-.69C31.92,88.76,27.39,88.75,22.86,88.75ZM109.3,85c-2.94.19-5.88.37-8.81.57A1.72,1.72,0,0,0,98.75,87c-.09.4-.14.81-.19,1.21a52.91,52.91,0,0,0,.84,14.43c.07.44.27.41.58.34,1.79-.42,3.44-1,4.35-2.83a3.56,3.56,0,0,1,.47-.63,2.5,2.5,0,0,1,3.63-.55,15.76,15.76,0,0,1,2.07,1.67,3.19,3.19,0,0,0,2.23.81,7.67,7.67,0,0,0,2.78-.64c.38-.15.34-.38.26-.68a16,16,0,0,0-5.48-8.64c-.26-.21-.4-.45-.16-.73a.53.53,0,0,1,.78,0l.33.27a16.65,16.65,0,0,1,5.18,7.86c.56,1.85.56,1.85,2.53,1.66H119A1.93,1.93,0,0,0,120.88,98a19.47,19.47,0,0,0-4-8.35c-.16-.2-.34-.4-.5-.61a.46.46,0,0,1,.06-.7c.25-.23.48-.15.68.08l.51.61A21,21,0,0,1,122,98.5a1.4,1.4,0,0,0,1.6.91c.64-.06.74-.53.74-1a6.21,6.21,0,0,0-.08-1.22,23.82,23.82,0,0,0-3.08-7.68,8.58,8.58,0,0,0-5.77-4.15A26.88,26.88,0,0,0,109.3,85Zm45.28,2.23c3,0,5.94,0,8.91,0,.41,0,.58-.06.58-.54,0-2.32,0-4.65,0-7a4.4,4.4,0,0,0-4.11-4.3c-3.88-.09-7.76,0-11.64-.08-.5,0-.53.28-.61.61q-1.24,5.34-2.5,10.68c-.11.45,0,.6.47.6C148.64,87.17,151.61,87.19,154.58,87.19Zm-112.28,39a55.83,55.83,0,0,1-1.1-8.42c0-.45-.16-.53-.58-.53q-10.14,0-20.28,0c-.55,0-.61.2-.61.67,0,2.49,0,5,0,7.47,0,.63.11.84.79.84,7,0,14,0,21,0Zm8.23,12.64c-.11-.12-.14-.19-.2-.22a12.86,12.86,0,0,1-4.62-4.11c-.21-.3-.47-.28-.75-.28H39.28q-15.08,0-30.13,0c-.53,0-.69.11-.67.66,0,1.13,0,2.25,0,3.38,0,.49.15.59.61.59C22.87,138.81,36.65,138.82,50.53,138.82Zm-6-6.17a20.58,20.58,0,0,1-1.7-4.32c-.13-.49-.35-.6-.84-.6H13a4.56,4.56,0,0,0-4.48,4c-.07.65,0,.88.79.88q17.22,0,34.45,0Zm59.15-57.29a33.85,33.85,0,0,1,1.68,4.37c.12.45.34.54.74.55a127.7,127.7,0,0,1,13.1,1A56.35,56.35,0,0,1,128.15,83c.9.27.85.26,1.07-.66.57-2.33.57-4.8,1.74-7ZM66,75c0-1,0-1.91,0-2.87q0-3.19.09-6.4c0-.5-.15-.86-.7-.89s-.78.27-.8.8-.07,1.14-.08,1.72c-.1,5.75,0,11.49.38,17.23,0,.55.27,1.22,0,1.62s-1,.22-1.54.32-1,.61-.73,1.12.69.45,1.12.4c4.21-.52,8.42-1,12.64-1.33,5-.45,9.93-.78,14.91-1.09.54,0,.56.14.46.58a27.74,27.74,0,0,0,.34,14.13,26.81,26.81,0,0,0,1.68,4.42c.22.46.53.68,1,.47s.54-.62.39-1.07c0-.14-.13-.26-.19-.39a26.44,26.44,0,0,1-1.65-17.67.66.66,0,0,1,.76-.61c1.17,0,2.34-.09,3.52-.13.54,0,1-.17.94-.81s-.49-.75-1-.72c-3.61.17-7.22.31-10.83.54-6.6.43-13.18,1-19.75,1.76-.39,0-.48-.07-.51-.43C66.24,82.12,66,78.55,66,75Zm98.08,24.08c0-3.29,0-6.57,0-9.86,0-.57-.34-.45-.65-.45H151.19l-.43,0A27.87,27.87,0,0,1,164.05,99.06Zm-37.26-12c.15-.76.24-1.37.4-2s0-.81-.55-.87c-.26,0-.5-.16-.76-.2-.66-.08-1.28-.47-2-.26a14.23,14.23,0,0,0-3.62,1.69c-.3.19-.35.31,0,.56a13.28,13.28,0,0,1,3.16,4.3,25.27,25.27,0,0,1,1.36,3.16.55.55,0,0,0,.53.39c.33,0,.25-.28.29-.46.16-.8.25-1.61.46-2.39.42-1.56.6-3-.71-4.3a.38.38,0,0,1,0-.63.51.51,0,0,1,.71.07C126.31,86.42,126.49,86.69,126.79,87.08Zm16-4.1a2.67,2.67,0,0,0-.18-.23c-.86-.87-1.73-1.72-2.58-2.59-.2-.21-.31-.1-.46,0-.82.83-1.64,1.67-2.48,2.47-.28.27-.2.4,0,.62.81.79,1.61,1.58,2.38,2.39.28.29.45.22.69,0,.78-.81,1.57-1.61,2.36-2.41ZM91.21,65.68c-.48,0-.8.5-.56,1.17,1,2.9,2.06,5.79,3.09,8.69.19.51.5.84,1.08.62s.54-.69.38-1.14l-3.13-8.76A.82.82,0,0,0,91.21,65.68Zm21.45,38.63H110.3c-.53,0-.84.22-.85.73s.32.78.83.78H115a.72.72,0,0,0,.81-.79c0-.53-.35-.73-.86-.72Zm-5.29-4.1c-.9-.36-1.61.22-2.16,1.7Z"/><path class="cls-2" d="M149.48,67.19c-.55-.56-1.1-.15-1.65,0l-11.75,0h-4.52c0-.26,0-.52,0-.79q0-8.58,0-17.17c0-.57,0-.78-.73-.64-2.84.57-5.69,1.05-8.53,1.59-.48.09-.67,0-.77-.51-.23-1.22-.53-2.42-.8-3.64-.87-3.93-1.75-7.86-2.66-11.94-.11.33-.17.5-.22.68l-2.55,9.85c0-.34,0-.67,0-1q0-15,0-30.06c0-.6.11-.81.77-.81q29.05,0,58.11,0c.22,0,.43,0,.64.05a8.19,8.19,0,0,0-.29,4,7.24,7.24,0,0,0,7.1,5.85v26l-.64,0a1.58,1.58,0,0,0-1.53,1.72A1.52,1.52,0,0,0,181,51.82l.57,0c0,4.84,0,9.68,0,14.52,0,.67-.19.82-.84.82q-15.19,0-30.4,0Zm-4.16-11.25.13,0q5-8.34,9.92-16.66c.27-.45-.05-.47-.31-.56-1.46-.53-2.92-1.07-4.4-1.56-.54-.18-.71-.36-.49-1,.84-2.31,1.62-4.65,2.42-7,.33-.95.64-1.91,1-2.91a.64.64,0,0,0-.51.3l-7.26,7.48c-2.19,2.25-4.36,4.51-6.57,6.74-.4.41-.33.54.16.76,2.21,1,4.41,2,6.62,3,.35.16.51.33.46.74-.18,1.48-.34,2.95-.49,4.43C145.75,51.81,145.54,53.87,145.32,55.94Zm27.85-.28h-4.66a1.56,1.56,0,0,0-1.75,1.57,1.58,1.58,0,0,0,1.72,1.61h9.19a1.61,1.61,0,0,0,1.75-1.59,1.58,1.58,0,0,0-1.73-1.59Zm-10.36-3.85h3.59a1.51,1.51,0,0,0,1.66-1.5,1.54,1.54,0,0,0-1.58-1.67c-2.45,0-4.89,0-7.34,0a1.59,1.59,0,1,0,.07,3.17Zm10.74,0h1.94a1.58,1.58,0,0,0,.18-3.15c-1.39-.06-2.78-.06-4.16,0a1.58,1.58,0,0,0,.17,3.15Zm-12.61,3.85h-1.8a1.58,1.58,0,0,0-.15,3.16q1.94.07,3.87,0a1.58,1.58,0,0,0,1.4-1.65,1.55,1.55,0,0,0-1.53-1.51C162.14,55.64,161.54,55.66,160.94,55.66Zm-37-38a2.23,2.23,0,0,0-2.32,2.14,2.25,2.25,0,1,0,4.5.13A2.21,2.21,0,0,0,124,17.69Zm5.66,2.22a2.18,2.18,0,0,0,2.2,2.24,2.23,2.23,0,1,0,0-4.46A2.15,2.15,0,0,0,129.62,19.91Z"/><path class="cls-2" d="M134.92,0C140,0,145,.06,150.09,0a4.26,4.26,0,0,1,4.36,4.33c0,2-.61,3.46-2.43,4.34a4.21,4.21,0,0,1-1.88.39H119.58c-2.71,0-4.35-1.82-4.33-4.72A4.13,4.13,0,0,1,119.6,0Z"/><path class="cls-1" d="M115.28,44.61l2.55-9.85c0-.18.11-.35.22-.68.91,4.08,1.79,8,2.66,11.94.27,1.22.57,2.42.8,3.64.1.5.29.6.77.51,2.84-.54,5.69-1,8.53-1.59.69-.14.74.07.73.64q0,8.58,0,17.17c0,.27,0,.53,0,.79v6l-.14,0-4.19-6.08c-.83-1.25-1.69-2.49-2.48-3.76a1,1,0,0,0-1.12-.49c-1.25.16-2.52.25-3.77.42-1.54.2-3.09.25-4.61.56a41.23,41.23,0,0,0-4.29.41c-.46,0-.68.06-.52-.56,1.59-6.14,3.14-12.28,4.7-18.42C115.19,45.08,115.23,44.84,115.28,44.61ZM130,68.37a2.33,2.33,0,0,0,.06-.32c0-5.73,0-11.46,0-17.19,0-.61-.26-.52-.65-.45-2.78.52-5.56,1-8.33,1.55-.48.09-.66,0-.76-.49-.47-2.24-1-4.48-1.48-6.72-.28-1.29-.57-2.57-.86-3.85h-.12c-1.83,7.2-3.67,14.39-5.52,21.66l.5,0c3.93-.42,7.86-.83,11.78-1.27a.73.73,0,0,1,.82.39c.7,1.06,1.41,2.1,2.12,3.16Z"/><path class="cls-1" d="M210.23,155.78l-7.4,3.48-32.42,15.22c-.54.26-.79.21-1-.36a12.81,12.81,0,0,0-.78-1.68c-.22-.41-.16-.59.28-.8q7-3.22,13.89-6.48,12.19-5.73,24.38-11.46a1,1,0,0,1,1.23.12A6.23,6.23,0,0,1,210.23,155.78Z"/><path class="cls-1" d="M149,203.61c-7.19,0-14.38,0-21.57,0-.62,0-.92-.08-.83-.79s-.33-1.82.16-2.26,1.46-.12,2.22-.12q20.2,0,40.41,0a1.07,1.07,0,0,1,1.12.64,10.08,10.08,0,0,1,.73,1.87c.13.51.07.73-.53.68s-1.34,0-2,0Z"/><path class="cls-1" d="M181.57,22.61a7.24,7.24,0,0,1-7.1-5.85,8.19,8.19,0,0,1,.29-4,7.36,7.36,0,0,1,4.82-4.36,7.26,7.26,0,0,1,9.15,7.87C188.34,19.75,186.35,22.47,181.57,22.61Zm5.64-7.06a5.68,5.68,0,1,0-11.36-.24A5.73,5.73,0,0,0,181.33,21C185,21.13,187.12,19.18,187.21,15.55Z"/><path class="cls-1" d="M186.62,114.74c0,.2-.18.25-.29.33-1.89,1.34-3.79,2.67-5.67,4-.31.23-.45.19-.67-.12q-2-2.85-4-5.68c-.2-.28-.15-.42.12-.61l5.74-4.06c.19-.14.33-.22.51,0,1.37,2,2.76,3.9,4.14,5.85Z"/><path class="cls-2" d="M115.25,63.88c1.52-.31,3.07-.36,4.61-.56,1.25-.17,2.52-.26,3.77-.42a1,1,0,0,1,1.12.49c.79,1.27,1.65,2.51,2.48,3.76-3.81,0-7.61,0-11.42,0-.45,0-.58-.14-.57-.57C115.27,65.7,115.25,64.79,115.25,63.88Z"/><path class="cls-1" d="M26.33,50a12.1,12.1,0,0,1-5-1.55,15.34,15.34,0,0,0-5-1.87c-2.15-.23-4,.25-5.15,2.28a.72.72,0,0,1-1.09.3A.75.75,0,0,1,9.92,48a5.85,5.85,0,0,1,5.39-3A11.92,11.92,0,0,1,21,46.51a20.5,20.5,0,0,0,4,1.71,5.94,5.94,0,0,0,6.59-2.31c.33-.45.67-.79,1.25-.44s.44.76,0,1.37A7.43,7.43,0,0,1,26.33,50Z"/><path class="cls-1" d="M26.73,55.3a11.12,11.12,0,0,1-5.06-1.41,26.41,26.41,0,0,0-3.92-1.74A6.84,6.84,0,0,0,14,52a4,4,0,0,0-2.67,2c-.27.5-.65.76-1.17.48s-.45-.82-.16-1.3c1.42-2.35,3.62-3,6.21-2.87A13.68,13.68,0,0,1,21.34,52a14.52,14.52,0,0,0,4.54,1.71,5.79,5.79,0,0,0,5.42-2.11,5,5,0,0,0,.4-.51c.31-.43.7-.62,1.16-.28s.38.79.08,1.21a7.47,7.47,0,0,1-6.21,3.29Z"/><path class="cls-1" d="M181.58,51.84l-.57,0a1.52,1.52,0,0,1-1.61-1.47,1.58,1.58,0,0,1,1.53-1.72l.64,0,8.18,0a1.65,1.65,0,0,1,1.75,1.18,1.55,1.55,0,0,1-1.53,2c-2.54,0-5.07,0-7.61,0Z"/><path class="cls-1" d="M38.07,45.76l-4.76-3.84,5.44-1.86Z"/><path class="cls-1" d="M97.11,40.31l6.77.84a.73.73,0,0,1,.71.89.76.76,0,0,1-1,.65l-6.46-.83c-.51-.06-.81-.34-.76-.85A.71.71,0,0,1,97.11,40.31Z"/><path class="cls-1" d="M98.9,51.69a.73.73,0,0,1-.45.68.86.86,0,0,1-.92-.2l-4-3.29c-.24-.2-.49-.39-.71-.6a.77.77,0,1,1,1-1.2l4.82,4A.79.79,0,0,1,98.9,51.69Z"/><path class="cls-1" d="M179.08,204.47c-.64,0-1-.5-.77-1,.78-1.77,1.6-3.52,2.42-5.27a.73.73,0,0,1,1-.38.74.74,0,0,1,.35,1.09c-.46,1-.95,2.09-1.43,3.13-.29.65-.6,1.29-.9,1.94C179.62,204.27,179.42,204.51,179.08,204.47Z"/><path class="cls-1" d="M44.32,204c0,.51-.21.79-.61.87a.68.68,0,0,1-.86-.47q-.66-2.38-1.25-4.78a.7.7,0,0,1,.56-.87.66.66,0,0,1,.88.43C43.5,200.8,43.92,202.44,44.32,204Z"/><path class="cls-1" d="M99.88,38.27c-.43,0-.86,0-1.29,0a.74.74,0,0,1-.84-.68.7.7,0,0,1,.68-.84c1-.09,1.95-.15,2.92-.17a.7.7,0,0,1,.74.79.72.72,0,0,1-.72.75c-.49,0-1,.05-1.49.07Z"/><path class="cls-1" d="M145.32,55.94c.22-2.07.43-4.13.66-6.2.15-1.48.31-3,.49-4.43.05-.41-.11-.58-.46-.74-2.21-1-4.41-2-6.62-3-.49-.22-.56-.35-.16-.76,2.21-2.23,4.38-4.49,6.57-6.74l7.26-7.48a.64.64,0,0,1,.51-.3c-.34,1-.65,2-1,2.91-.8,2.33-1.58,4.67-2.42,7-.22.6,0,.78.49,1,1.48.49,2.94,1,4.4,1.56.26.09.58.11.31.56q-5,8.33-9.92,16.66Zm2.3-6.93.14,0c1.78-3,3.55-6,5.34-9,.26-.43-.1-.41-.31-.48-1.41-.52-2.82-1-4.25-1.51-.42-.15-.58-.3-.38-.76.27-.63.46-1.3.68-2,.34-1,.67-2,1.07-3.12a3.3,3.3,0,0,0-.38.28c-2.59,2.65-5.18,5.32-7.78,8-.36.36-.1.43.18.56,1.92.86,3.83,1.73,5.75,2.58a.6.6,0,0,1,.43.75C147.91,45.91,147.78,47.46,147.62,49Z"/><path class="cls-1" d="M173.17,55.66h4.52a1.58,1.58,0,0,1,1.73,1.59,1.61,1.61,0,0,1-1.75,1.59h-9.19a1.58,1.58,0,0,1-1.72-1.61,1.56,1.56,0,0,1,1.75-1.57Z"/><path class="cls-1" d="M162.81,51.81h-3.6a1.59,1.59,0,1,1-.07-3.17c2.45,0,4.89,0,7.34,0a1.54,1.54,0,0,1,1.58,1.67,1.51,1.51,0,0,1-1.66,1.5Z"/><path class="cls-1" d="M173.55,51.81h-1.87a1.58,1.58,0,0,1-.17-3.15c1.38-.06,2.77-.06,4.16,0a1.58,1.58,0,0,1-.18,3.15Z"/><path class="cls-1" d="M160.94,55.66c.6,0,1.2,0,1.79,0a1.55,1.55,0,0,1,1.53,1.51,1.58,1.58,0,0,1-1.4,1.65q-1.94.07-3.87,0a1.58,1.58,0,0,1,.15-3.16h1.8Z"/><path class="cls-1" d="M124,17.69A2.21,2.21,0,0,1,126.14,20,2.25,2.25,0,1,1,124,17.69Z"/><path class="cls-1" d="M129.62,19.91a2.15,2.15,0,0,1,2.2-2.22,2.23,2.23,0,1,1,0,4.46A2.18,2.18,0,0,1,129.62,19.91Z"/><path class="cls-1" d="M85.66,37.82A23.36,23.36,0,0,1,84.08,44c-.15.37-.37.57-.76.42s-.36-.45-.23-.78a22.22,22.22,0,0,0,1.54-5.94c0-.36.2-.62.59-.55A.5.5,0,0,1,85.66,37.82Z"/><path class="cls-1" d="M62.21,30.79a5.16,5.16,0,0,1,4.54,4.14c0,.31-.06.53-.37.59a.49.49,0,0,1-.63-.32c0-.11-.07-.23-.1-.34a4,4,0,0,0-3.51-3c-.34-.06-.72,0-.69-.52S61.81,30.74,62.21,30.79Z"/><path class="cls-1" d="M80.89,36.84a.94.94,0,0,1-1,1,1,1,0,0,1-1.06-1,1,1,0,0,1,1.06-1A1,1,0,0,1,80.89,36.84Z"/><path class="cls-1" d="M182,15.57c0,1,0,2,0,3,0,.38-.12.61-.51.61s-.51-.23-.51-.61q0-3.09,0-6.18c0-.36.09-.62.51-.61s.51.25.51.61C181.94,13.46,182,14.52,182,15.57Z"/></g></g></svg>